<?xml version="1.0" encoding="utf-8"?>
<!-- Generator: Adobe Illustrator 18.1.1, SVG Export Plug-In . SVG Version: 6.00 Build 0)  -->
<svg version="1.1" id="Layer_1" xmlns:sketch="http://www.bohemiancoding.com/sketch/ns"
	 xmlns="http://www.w3.org/2000/svg" xmlns:xlink="http://www.w3.org/1999/xlink" x="0px" y="0px" viewBox="-403 578.5 34 34"
	 enable-background="new -403 578.5 34 34" xml:space="preserve">
<title>icon-user</title>
<desc>Created with Sketch.</desc>
<g id="Style-Guide" sketch:type="MSPage">
	<g id="Desktop-HD" transform="translate(-518.000000, 0.000000)" sketch:type="MSArtboardGroup">
		<g id="icon-user" transform="translate(520.000000, 2.000000)" sketch:type="MSLayerGroup">
			<g id="Mask" sketch:type="MSShapeGroup">
				<circle id="path-1_1_" fill="#FFFFFF" stroke="#FF9933" stroke-width="2" cx="-388" cy="593.5" r="15"/>
			</g>
			<defs>
				<filter id="Adobe_OpacityMaskFilter" filterUnits="userSpaceOnUse" x="-398" y="586.5" width="20" height="20">
					<feColorMatrix  type="matrix" values="1 0 0 0 0  0 1 0 0 0  0 0 1 0 0  0 0 0 1 0"/>
				</filter>
			</defs>
			<mask maskUnits="userSpaceOnUse" x="-398" y="586.5" width="20" height="20" id="mask-2">
				<g filter="url(#Adobe_OpacityMaskFilter)">
					<circle id="path-1" fill="#FFFFFF" cx="-388" cy="593.5" r="15"/>
				</g>
			</mask>
			<path id="Shape" sketch:type="MSShapeGroup" mask="url(#mask-2)" fill="#FF9933" d="M-388,596.5c2.8,0,5-2.2,5-5s-2.2-5-5-5
				s-5,2.2-5,5S-390.8,596.5-388,596.5L-388,596.5z M-388,599c-3.4,0-10,1.6-10,5v2.5h20V604C-378,600.7-384.6,599-388,599L-388,599
				z"/>
		</g>
	</g>
</g>
</svg>
